<svg id="Layer_1" data-name="Layer 1" xmlns="http://www.w3.org/2000/svg" viewBox="0 0 25 25" width="85px" height="85px"><defs><style>.cls-1{fill:#4FBDBA;}.cls-2{fill:#072227;}.cls-3{fill:#40d32a;}.cls-4{fill:#fcd638;}.cls-5{fill:#f45151;}.cls-6{fill:#fff;}.cls-7,.cls-8,.cls-9{fill:none;stroke-linecap:round;stroke-miterlimit:10;stroke-width:0.3px;}.cls-7{stroke:#f45151;}.cls-8{stroke:#fcd638;}.cls-9{stroke:#40d32a;}.cls-10{fill:#35858b;}</style></defs><title>back-end</title><path class="cls-1" d="M39.71,27.94a12.5,12.5,0,1,1-12.5,12.5A12.49,12.49,0,0,1,39.71,27.94Z" transform="translate(-27.21 -27.94)"/><path class="cls-2" d="M47.13,33.51v3H32.29v-3a.49.49,0,0,1,.49-.49H46.64A.49.49,0,0,1,47.13,33.51Z" transform="translate(-27.21 -27.94)"/><path class="cls-3" d="M36.24,34a.5.5,0,1,1-.49.5A.5.5,0,0,1,36.24,34Z" transform="translate(-27.21 -27.94)"/><path class="cls-4" d="M35,34a.5.5,0,0,1,0,1,.5.5,0,1,1,0-1Z" transform="translate(-27.21 -27.94)"/><circle class="cls-5" cx="6.56" cy="6.56" r="0.5"/><path class="cls-6" d="M47.13,35.75V47.08a.78.78,0,0,1-.78.78H33.07a.78.78,0,0,1-.78-.78V35.75Z" transform="translate(-27.21 -27.94)"/><line class="cls-7" x1="7" y1="10" x2="15" y2="10"/><line class="cls-8" x1="7" y1="11" x2="12" y2="11"/><line class="cls-9" x1="7" y1="12" x2="14" y2="12"/><path class="cls-10" d="M40.21,44a.41.41,0,0,0,.27-.08.3.3,0,0,0,.1-.25v-.9a.77.77,0,0,1,.85-.83v.42a.4.4,0,0,0-.3.1.33.33,0,0,0-.1.26v1a.7.7,0,0,1-.22.56.85.85,0,0,1-.6.2Zm.59,2.28a.87.87,0,0,1-.22-.62v-.9a.28.28,0,0,0-.1-.24.37.37,0,0,0-.27-.09V44a.81.81,0,0,1,.6.21.73.73,0,0,1,.22.58v.92a.33.33,0,0,0,.1.26.4.4,0,0,0,.3.1v.42A.89.89,0,0,1,40.8,46.28Z" transform="translate(-27.21 -27.94)"/><path class="cls-10" d="M41.79,45.17h.47v.46h-.47Z" transform="translate(-27.21 -27.94)"/><path class="cls-10" d="M42.81,45.17h.47v.46h-.47Z" transform="translate(-27.21 -27.94)"/><path class="cls-10" d="M43.82,45.17h.47v.46h-.47Z" transform="translate(-27.21 -27.94)"/><path class="cls-10" d="M45.27,44.23a.74.74,0,0,1-.22-.56v-1a.33.33,0,0,0-.1-.26.4.4,0,0,0-.3-.1v-.42a.85.85,0,0,1,.63.22.8.8,0,0,1,.22.61v.9a.3.3,0,0,0,.1.25.41.41,0,0,0,.27.08v.43A.85.85,0,0,1,45.27,44.23Zm-.62,1.84A.4.4,0,0,0,45,46a.33.33,0,0,0,.1-.26v-.92a.77.77,0,0,1,.22-.58.81.81,0,0,1,.6-.21v.43a.37.37,0,0,0-.27.09.28.28,0,0,0-.1.24v.9a.83.83,0,0,1-.22.62.89.89,0,0,1-.63.21Z" transform="translate(-27.21 -27.94)"/></svg>