<svg id="Layer_1" data-name="Layer 1" xmlns="http://www.w3.org/2000/svg" viewBox="0 0 25 25" width="85px" height="85px"><defs><style>.cls-1{fill:#1ed760;}.cls-2{fill:#089b39;}.cls-3{fill:#40d32a;}.cls-4{fill:#fcd638;}.cls-5{fill:#f45151;}.cls-6{fill:#fff;}.cls-7{fill:#222323;}</style></defs><title>front-end</title><path class="cls-1" d="M31.5,18A12.5,12.5,0,1,1,19,30.5,12.49,12.49,0,0,1,31.5,18Z" transform="translate(-19 -18)"/><path class="cls-2" d="M38.92,23.57v3H24.08v-3a.49.49,0,0,1,.49-.49H38.43A.49.49,0,0,1,38.92,23.57Z" transform="translate(-19 -18)"/><path class="cls-3" d="M28,24.07a.5.5,0,1,1-.5.49A.49.49,0,0,1,28,24.07Z" transform="translate(-19 -18)"/><path class="cls-4" d="M26.8,24.07a.5.5,0,0,1,0,1,.5.5,0,1,1,0-1Z" transform="translate(-19 -18)"/><circle class="cls-5" cx="6.56" cy="6.56" r="0.5"/><path class="cls-6" d="M38.92,25.81V37.14a.78.78,0,0,1-.78.78H24.86a.78.78,0,0,1-.78-.78V25.81Z" transform="translate(-19 -18)"/><polygon class="cls-7" points="17.75 13.98 15.25 16.49 14.7 15.93 16.65 13.98 14.7 12.04 15.25 11.48 17.75 13.98"/><polygon class="cls-7" points="14.1 10.66 11.63 17.34 10.9 17.07 13.37 10.39 14.1 10.66"/><polygon class="cls-7" points="9.75 11.48 10.3 12.04 8.35 13.98 10.3 15.93 9.75 16.49 7.25 13.98 9.75 11.48"/></svg>