<svg id="Layer_2" data-name="Layer 2" xmlns="http://www.w3.org/2000/svg" viewBox="0 0 190.44 263.94"><defs><style>.cls-1{fill:#98f9ab;}.cls-2{fill:#f7f7f7;}.cls-3{fill:#c0fcca;}.cls-4{fill:none;stroke:#8af99c;stroke-linecap:round;stroke-miterlimit:10;stroke-width:10px;}</style></defs><title>Thanks</title><path class="cls-1" d="M204.78,287.4v75.27A57.21,57.21,0,0,0,262,419.88h76a57.21,57.21,0,0,0,57.21-57.21V287.4l-87.8-72.95a15.4,15.4,0,0,0-20,.28Z" transform="translate(-204.78 -155.94)"/><path class="cls-2" d="M223.4,296.92v-47.3a13.28,13.28,0,0,1,13.49-13.06H364.44a13.28,13.28,0,0,1,13.49,13.06v53.77l-69.11,70.77Z" transform="translate(-204.78 -155.94)"/><path class="cls-3" d="M204.78,287.4,300.56,350l-28.08,69.84H216.93a12.15,12.15,0,0,1-12.15-12.15Z" transform="translate(-204.78 -155.94)"/><path class="cls-3" d="M395.22,287.4,303,345.17l69.55,74.71h10a12.66,12.66,0,0,0,12.66-12.65Z" transform="translate(-204.78 -155.94)"/><polyline class="cls-4" points="67.75 132.04 86.75 151.76 126.79 111.16"/><line class="cls-4" x1="47" y1="53.24" x2="31.16" y2="46.76"/><line class="cls-4" x1="64.28" y1="31.64" x2="56.36" y2="16.52"/><line class="cls-4" x1="93.8" y1="24.08" x2="93.8" y2="5"/><line class="cls-4" x1="124.04" y1="31.64" x2="131.96" y2="16.52"/><line class="cls-4" x1="142.04" y1="53.24" x2="158.6" y2="46.76"/><path class="cls-1" d="M214.81,412.22l72.38-70.07a20.53,20.53,0,0,1,28.43-.12l73.51,70a4.5,4.5,0,0,1-3,7.81H218A4.5,4.5,0,0,1,214.81,412.22Z" transform="translate(-204.78 -155.94)"/></svg>